<svg width="49" height="37" xmlns="http://www.w3.org/2000/svg"><g fill-rule="nonzero" fill="none"><path d="M8.547 36.674v-2.505a1.486 1.486 0 0 0-1.57-1.586 1.544 1.544 0 0 0-1.402.71 1.465 1.465 0 0 0-1.319-.71 1.319 1.319 0 0 0-1.168.593v-.493H2.22v3.99h.876v-2.195a.935.935 0 0 1 .977-1.06c.576 0 .868.375.868 1.052v2.22h.876v-2.212a.94.94 0 0 1 .977-1.06c.593 0 .877.375.877 1.052v2.22l.876-.016zm12.968-3.991h-1.427v-1.21h-.877v1.21h-.793v.793h.81v1.837c0 .927.359 1.478 1.386 1.478.383 0 .76-.106 1.085-.31l-.25-.742a1.603 1.603 0 0 1-.769.225c-.417 0-.576-.267-.576-.668v-1.82h1.42l-.009-.793zm7.404-.1a1.177 1.177 0 0 0-1.051.584v-.484h-.86v3.99h.868v-2.237c0-.66.284-1.027.835-1.027.185-.002.37.032.542.1l.267-.834a1.857 1.857 0 0 0-.617-.109l.016.017zM17.725 33a2.984 2.984 0 0 0-1.627-.417c-1.01 0-1.67.484-1.67 1.277 0 .651.484 1.052 1.377 1.177l.418.059c.476.067.7.192.7.417 0 .31-.316.484-.909.484a2.124 2.124 0 0 1-1.327-.417l-.418.676a2.88 2.88 0 0 0 1.728.518c1.152 0 1.82-.543 1.82-1.303 0-.76-.526-1.068-1.394-1.193l-.417-.059c-.376-.05-.676-.125-.676-.392s.283-.468.76-.468c.439.005.87.123 1.251.342l.384-.7zm23.252-.417a1.177 1.177 0 0 0-1.051.584v-.484h-.86v3.99h.868v-2.237c0-.66.284-1.027.835-1.027.185-.002.37.032.542.1l.267-.834a1.857 1.857 0 0 0-.617-.109l.016.017zM29.792 34.67a2.016 2.016 0 0 0 2.128 2.087 2.087 2.087 0 0 0 1.436-.476l-.417-.701c-.3.229-.666.355-1.044.359a1.281 1.281 0 0 1 0-2.555c.378.004.744.13 1.044.36l.417-.702a2.087 2.087 0 0 0-1.436-.476 2.016 2.016 0 0 0-2.128 2.087v.017zm8.13 0v-1.987h-.868v.484a1.515 1.515 0 0 0-1.252-.584 2.087 2.087 0 0 0 0 4.174c.487.018.953-.2 1.252-.584v.484h.868V34.67zm-3.23 0a1.206 1.206 0 1 1 1.21 1.277 1.198 1.198 0 0 1-1.21-1.277zm-10.476-2.087a2.087 2.087 0 0 0 .058 4.174c.6.031 1.191-.162 1.657-.543l-.417-.642c-.33.264-.738.41-1.16.417a1.106 1.106 0 0 1-1.194-.977h2.963v-.334c0-1.252-.776-2.087-1.895-2.087l-.012-.008zm0 .776a.99.99 0 0 1 1.01.969h-2.087a1.027 1.027 0 0 1 1.06-.969h.017zm21.75 1.32V31.08h-.836v2.087a1.515 1.515 0 0 0-1.252-.584 2.087 2.087 0 0 0 0 4.174c.487.018.953-.2 1.252-.584v.484h.835v-1.979zm1.447 1.414a.417.417 0 0 1 .288.113.388.388 0 0 1-.13.643.392.392 0 0 1-.158.033.417.417 0 0 1-.375-.242.392.392 0 0 1 .087-.434.417.417 0 0 1 .3-.113h-.012zm0 .706a.296.296 0 0 0 .217-.092.309.309 0 0 0 0-.417.309.309 0 0 0-.217-.092.313.313 0 0 0-.22.092.309.309 0 0 0 0 .417.309.309 0 0 0 .1.067.309.309 0 0 0 .133.025h-.013zm.025-.497a.167.167 0 0 1 .109.034c.026.021.04.054.038.087a.1.1 0 0 1-.03.075.146.146 0 0 1-.087.038l.12.138h-.095l-.113-.138h-.038v.138h-.079v-.368l.175-.004zm-.091.071v.1h.091a.088.088 0 0 0 .05 0 .042.042 0 0 0 0-.037.042.042 0 0 0 0-.038.088.088 0 0 0-.05 0l-.091-.025zm-4.592-1.695a1.206 1.206 0 1 1 1.21 1.278 1.198 1.198 0 0 1-1.21-1.278zm-29.312 0v-1.995h-.868v.484a1.515 1.515 0 0 0-1.252-.584 2.087 2.087 0 0 0 0 4.174c.487.018.953-.2 1.252-.584v.484h.868v-1.979zm-3.23 0a1.206 1.206 0 1 1 1.21 1.278 1.198 1.198 0 0 1-1.219-1.278h.008z" fill="#231F20"/><path fill="#FF5F00" d="M17.8 3.277h13.148v23.631H17.8z"/><path d="M18.636 15.094a15.003 15.003 0 0 1 5.739-11.817C18.215-1.565 9.367-.86 4.052 4.897c-5.316 5.757-5.316 14.633 0 20.39 5.315 5.758 14.162 6.463 20.323 1.62a15.003 15.003 0 0 1-5.74-11.813z" fill="#EB001B"/><path d="M48.687 15.094a15.024 15.024 0 1 1-24.312 11.813 15.028 15.028 0 0 0 0-23.63A15.024 15.024 0 0 1 48.687 15.09v.004z" fill="#F79E1B"/></g></svg>