<svg width="183" height="27" xmlns="http://www.w3.org/2000/svg"><path d="M123.219 12.082h.108c.04 0 .087.002.12-.018.034-.022.048-.064.048-.102 0-.033-.019-.073-.048-.089-.028-.02-.087-.015-.122-.015h-.106v.224zm0 .496h-.196v-.882h.354a.37.37 0 0 1 .216.049c.068.05.106.133.106.221 0 .098-.055.19-.144.222l.153.39h-.217l-.13-.345h-.142v.345zm.13.326c.4 0 .728-.344.728-.765 0-.419-.327-.759-.729-.759-.4 0-.728.34-.728.76s.329.764.728.764h.001zm-.955-.765c0-.553.43-1 .954-1 .528 0 .953.447.953 1 0 .554-.425 1.002-.953 1.002-.525 0-.954-.448-.954-1.002zm-13.647-6.655l-.26 1.697c-.568-.301-.985-.42-1.43-.42-1.19 0-2.03 1.207-2.03 2.928 0 1.19.564 1.906 1.492 1.906.394 0 .827-.127 1.357-.403l-.278 1.785c-.587.169-.969.23-1.412.23-1.722 0-2.793-1.297-2.793-3.378 0-2.798 1.48-4.753 3.597-4.753.273 0 .517.027.716.085l.658.172c.196.078.24.089.383.151zm-5.3 1.163a.871.871 0 0 0-.163-.016c-.526 0-.823.278-1.312 1.036l.142-.967h-1.446l-.98 6.362h1.604c.573-3.889.72-4.56 1.49-4.56a.77.77 0 0 1 .116.007c.142-.767.336-1.33.604-1.845l-.054-.017h-.001zm-9.56 6.337c-.434.144-.777.21-1.145.21-.815 0-1.26-.496-1.26-1.4 0-.177.013-.368.045-.57l.1-.62.072-.507.693-4.341h1.588l-.183.944h.818l-.225 1.546h-.814l-.422 2.655c-.015.118-.027.204-.027.264 0 .326.166.472.544.472.184 0 .323-.02.43-.06l-.214 1.407zm-6.294-4.272c0 .802.37 1.358 1.21 1.773.643.32.745.412.745.702 0 .394-.285.578-.914.578-.474 0-.917-.079-1.427-.255l-.221 1.467.072.016.293.062c.094.02.233.038.416.058.38.035.673.052.88.052 1.675 0 2.45-.675 2.45-2.124 0-.87-.324-1.385-1.122-1.771-.666-.317-.741-.391-.741-.687 0-.345.264-.522.777-.522.313 0 .737.037 1.142.094l.228-1.469a9.954 9.954 0 0 0-1.401-.125c-1.778 0-2.394.976-2.387 2.15v.001zm31.517 2.852c.746 0 1.267-.884 1.267-2.143 0-.809-.297-1.25-.849-1.25-.723 0-1.237.888-1.237 2.14 0 .833.276 1.253.819 1.253zm2.357 1.498h-1.511l.079-.623c-.44.492-.892.707-1.476.707-1.168 0-1.933-1.05-1.933-2.64 0-2.117 1.19-3.903 2.602-3.903.62 0 1.09.267 1.531.87l.348-2.235h1.574l-1.214 7.824zM98.049 9.14c.01-.133.011-.242.011-.322 0-.52-.28-.824-.755-.824-.507 0-.87.406-1.018 1.142l1.762.004zm.896 3.788c-.53.17-1.083.257-1.64.256-1.781 0-2.711-.978-2.711-2.848 0-2.186 1.183-3.796 2.792-3.796 1.312 0 2.155.902 2.155 2.315 0 .469-.057.925-.2 1.57h-3.174a1.19 1.19 0 0 0-.016.198c0 .743.475 1.118 1.404 1.118.57 0 1.083-.124 1.657-.405l-.267 1.592zm-17.763.134h-1.596L80.5 7.05l-2.042 6.012h-1.093l-.132-5.976-.963 5.976h-1.494l1.247-7.824h2.299l.063 4.841 1.552-4.84h2.482l-1.237 7.823zm5.272 0h-1.323l.03-.66c-.403.526-.942.77-1.674.77-.868 0-1.46-.709-1.46-1.733 0-1.553 1.035-2.455 2.806-2.455.18 0 .412.014.65.047.05-.21.063-.301.063-.412 0-.42-.278-.58-1.026-.58-.452 0-.97.069-1.328.182l-.222.064-.14.04.22-1.426c.797-.247 1.322-.342 1.914-.342 1.372 0 2.1.646 2.1 1.865 0 .317-.024.552-.133 1.263l-.334 2.254-.054.407-.041.324-.028.221-.02.17v.001zm-1.161-2.834a2.752 2.752 0 0 0-.358-.027c-.905 0-1.363.328-1.363.97 0 .396.225.65.574.65.65 0 1.12-.65 1.147-1.593zm27.368 2.834h-1.325l.032-.66c-.404.526-.943.77-1.673.77-.868 0-1.463-.709-1.463-1.733 0-1.553 1.034-2.455 2.808-2.455.18 0 .413.014.65.047a1.7 1.7 0 0 0 .063-.412c0-.42-.278-.58-1.026-.58-.454 0-.971.069-1.326.182l-.227.064-.138.04.222-1.426c.798-.247 1.322-.342 1.91-.342 1.374 0 2.101.646 2.101 1.865 0 .317-.027.552-.131 1.263l-.336 2.254-.05.407-.045.324-.028.221-.018.17v.001zm-1.162-2.834a2.727 2.727 0 0 0-.356-.027c-.908 0-1.367.328-1.367.97 0 .396.227.65.576.65.653 0 1.118-.65 1.147-1.593zm5.623-3.58a.808.808 0 0 0-.161-.017c-.525 0-.824.278-1.315 1.036l.142-.967h-1.444l-.977 6.362h1.6c.573-3.889.725-4.56 1.489-4.56.05 0 .046-.005.111.007.145-.767.34-1.33.609-1.845l-.054-.017v.001zm-5.13 12.61c0-1.603-.794-2.85-2.286-2.85-1.718 0-2.83 1.517-2.83 3.75 0 1.6.657 2.907 2.283 2.907 1.641 0 2.832-1.159 2.832-3.807h.001zm-1.571-.026c0 1.442-.448 2.292-1.153 2.292-.515.015-.827-.557-.827-1.414 0-1.012.456-2.16 1.188-2.16.588 0 .792.622.792 1.282zm-3.032-3.95l-.245 1.695c-.53-.299-.917-.423-1.334-.423-1.116 0-1.895 1.211-1.895 2.933 0 1.188.522 1.907 1.39 1.907.372 0 .777-.126 1.27-.403l-.259 1.784c-.551.17-.912.229-1.322.229-1.608 0-2.609-1.297-2.609-3.378 0-2.8 1.382-4.754 3.362-4.754.256 0 .482.033.67.084l.61.174c.19.074.228.087.362.152zm-9.875 1.165a.584.584 0 0 0-.153-.018c-.484 0-.768.28-1.222 1.035l.132-.965h-1.35l-.912 6.363h1.492c.536-3.893.678-4.563 1.393-4.563.042 0 .046 0 .109.008.134-.77.315-1.334.566-1.85l-.055-.01zm17.273 4.85c.703 0 1.187-.884 1.187-2.144 0-.811-.277-1.246-.79-1.246-.678 0-1.16.884-1.16 2.14 0 .829.259 1.25.763 1.25zm2.205 1.496h-1.41l.073-.62c-.41.49-.836.706-1.381.706-1.087 0-1.804-1.052-1.804-2.643 0-2.111 1.113-3.903 2.43-3.903.58 0 1.021.274 1.429.876l.329-2.237h1.467l-1.133 7.821zm-34.294-3.812c.007-.134.011-.24.011-.323 0-.518-.262-.822-.705-.822-.476 0-.814.408-.951 1.139l1.645.006zm.834 3.786c-.49.172-1.008.26-1.528.259-1.665 0-2.534-.98-2.534-2.85 0-2.182 1.105-3.794 2.606-3.794 1.23 0 2.013.901 2.013 2.315 0 .467-.053.925-.18 1.57h-2.973a2.028 2.028 0 0 0-.012.198c0 .74.445 1.115 1.31 1.115.533 0 1.014-.124 1.55-.403l-.252 1.59zm16.9-3.786c.01-.134.015-.24.015-.323 0-.518-.265-.822-.706-.822-.476 0-.814.408-.952 1.139l1.642.006h.001zm.837 3.786a4.598 4.598 0 0 1-1.528.259c-1.668 0-2.536-.98-2.536-2.85 0-2.182 1.107-3.794 2.606-3.794 1.23 0 2.016.901 2.016 2.315 0 .467-.056.925-.188 1.57h-2.966c-.009.095-.014.142-.014.198 0 .74.444 1.115 1.31 1.115.532 0 1.015-.124 1.549-.403l-.249 1.59zm19.972-3.786a6.73 6.73 0 0 0 .012-.323c0-.518-.261-.822-.705-.822-.477 0-.814.408-.952 1.139l1.645.006zm.838 3.786c-.492.172-1.01.26-1.531.259-1.666 0-2.537-.98-2.537-2.85 0-2.182 1.11-3.794 2.609-3.794 1.229 0 2.011.901 2.011 2.315 0 .467-.05.925-.183 1.57h-2.968a1.73 1.73 0 0 0-.013.198c0 .74.446 1.115 1.31 1.115.534 0 1.015-.124 1.55-.403l-.248 1.59zm-42.961-6.032a2.165 2.165 0 0 0-1.246-.366c-.602 0-1.088.125-1.088.765 0 1.13 2.199.709 2.199 3.129 0 2.204-1.452 2.776-2.764 2.776-.584 0-1.255-.193-1.75-.412l.356-1.62c.298.27.901.456 1.394.456.47 0 1.206-.128 1.206-.946 0-1.28-2.197-.804-2.197-3.053 0-2.056 1.283-2.671 2.521-2.671.697 0 1.352.102 1.736.356l-.367 1.586zm8.78 6.03c-.307.147-.718.244-1.324.244-1.304 0-2.112-1.3-2.112-2.882 0-2.072 1.17-3.724 2.89-3.724.375 0 .948.162 1.4.423l-.33 1.52c-.32-.21-.652-.343-.996-.343-.797 0-1.366.729-1.366 2.035 0 .752.413 1.37 1.065 1.37.389 0 .662-.082.996-.277l-.223 1.633v.001zm5.578-1.594a24.59 24.59 0 0 0-.19 1.65H91.85l.121-1.028h-.014c-.45.699-.915 1.175-1.727 1.175-.902 0-1.39-.947-1.39-2.182 0-.426.026-.667.122-1.333l.406-2.944h1.597l-.428 2.953c-.043.318-.104.632-.104.96 0 .373.17.75.6.726.655 0 1.042-.798 1.151-1.732l.441-2.907h1.547l-.696 4.662zm30.092 1.573h-.242v-1.055h-.349v-.226h.94v.226h-.35v1.055h.001zm1.601 0h-.225v-1.07h-.003l-.216 1.07h-.236l-.211-1.07h-.004v1.07h-.225v-1.28h.352l.21 1.009h.003l.206-1.01h.35v1.28l-.001.001zm51.367-5.19c-.062.498-.144.976-.245 1.434-.427-.138-.92-.36-1.614-.314-.415.028-.905.187-.912.56-.007.413.673.659 1.053.84.682.326 1.415.76 1.473 1.645a2.081 2.081 0 0 1-.632 1.61c-.956.902-3.077.997-4.525.42.09-.482.172-.972.245-1.47.562.237 1.331.559 2.176.455.384-.047.855-.271.841-.665-.017-.48-.915-.766-1.368-1.015-.526-.29-1.125-.77-1.158-1.505a1.92 1.92 0 0 1 .422-1.26c.747-.928 2.668-1.257 4.244-.735zM159.345 8.18h1.934l-1.191 7.488h-1.934l1.19-7.488h.001zm-6.701 0h2.96c1.885 0 2.374 1.082 2.168 2.375-.171 1.08-.949 1.8-1.959 2.057l1.876 3.056h-2.428l-1.407-2.94-.467 2.94h-1.934l1.19-7.489.001.001zm1.697 1.489l-.299 1.878h.56c.543 0 1.057-.422 1.142-.94.086-.516-.289-.938-.833-.938h-.57zm13.836-1.49h1.934l-1.19 7.49h-1.935l1.191-7.49zm7.65 0l-.26 1.629h-2.312l-.203 1.28h2.198l-.259 1.628h-2.198l-.21 1.324h2.312l-.26 1.628h-4.246l1.19-7.489h4.248zm-28.58 0h4.247l-.26 1.629h-2.311l-.204 1.28h2.198l-.259 1.628h-2.198l-.21 1.324h2.312l-.26 1.628h-4.245l1.19-7.489zm15.496 0h4.294l-.259 1.629h-2.36l-.207 1.28h2.148l-.26 1.628h-2.146l-.47 2.952h-1.93l1.19-7.489zm14.222 0h2.52c3.002 0 3.687 2.267 3.452 3.747-.337 2.114-2.226 3.742-4.643 3.742h-2.52l1.19-7.489h.001zm1.675 1.629h.399c1.479 0 2.056 1.04 1.897 2.044-.215 1.346-1.185 2.188-2.452 2.188h-.517l.673-4.232zm-40.46-2.65h3.578l.425 5.442A391.497 391.497 0 0 1 149.38.712h1.166c-2.565 4.937-5.098 9.907-7.552 14.956h-2.626l-.64-6c-.16-1.489-.46-2.12-1.548-2.281v-.229zm15.458 13.874c.463 0 .777.423.702.944-.075.521-.51.944-.973.944-.462 0-.777-.423-.702-.944.075-.521.51-.944.973-.944zm-1.562-3.603h1.251l-.421 2.952c.357-.345.795-.557 1.283-.557 1.005 0 1.663.965 1.486 2.157-.178 1.191-1.125 2.158-2.13 2.158a1.23 1.23 0 0 1-1.09-.596l-.068.468h-1.252l.94-6.582h.001zm3.706 2.495h1.502l.672 2.092 1.304-2.092h1.452l-3.81 6.106h-1.451l1.607-2.575-1.276-3.531zm12.394 4.084l1.1-6.58h1.8l-1.1 6.58h-1.8zm-1.504-6.594c-.621 1.457-1.15 3.006-1.79 4.445l-.187-.864-.002-.01.031.154a4.057 4.057 0 0 0-.701-1.307 5.183 5.183 0 0 0-.27-.318 6.58 6.58 0 0 0-1.522-1.211l1.6 5.691h1.929c.908-2.22 1.888-4.37 2.805-6.58h-1.893zm15.932 6.615h-1.649c-.107-.314-.136-.704-.245-1.015h-2.245l-.42 1.015h-1.895l2.455-5.635c.109-.247.304-.585.386-.735.125-.228.607-.245.813-.245h1.362l1.438 6.615zm-2.732-4.792l-.916 2.447h1.482l-.566-2.447zM139.535 4.065l3.05 1.29.265 3.39h.226l2.77-4.677v-.236h-6.311v.233zm23.74 13.35h-2.944v.143c1.694.33 3.833 1.748 4.393 3.58l-.631-3.064c-.087-.473-.417-.66-.819-.66l.001.001zM32.11 18.42l2.89-.905-.89-1.97a43.647 43.647 0 0 0-2 2.875zm-9.847 3.083L7.903 26 0 4.591 28.445 3l3.96 8.768c-.237.254-.455.51-.654.758a50.279 50.279 0 0 0-2.408 3.284v-5.73h-3.539v8.744c-.488-.405-.989-.737-1.445-.885l-.003-1.266a9.78 9.78 0 0 1-1.29.387 5.744 5.744 0 0 1-1.237.133c-.41 0-.79-.054-1.146-.161a2.727 2.727 0 0 1-.93-.472 2.298 2.298 0 0 1-.633-.787 2.463 2.463 0 0 1-.233-1.1c0-.807.25-1.428.748-1.865.5-.434 1.146-.652 1.942-.652.493 0 .957.066 1.39.194.431.13.824.29 1.172.486l.006-2.466c-.445-.16-.456-.177-1.015-.299-.557-.12-1.193-.14-1.88-.14a8.37 8.37 0 0 0-2.444.34c-.74.227-1.38.55-1.914.966-.536.419-.95.92-1.246 1.506a4.276 4.276 0 0 0-.441 1.945c0 .719.138 1.371.415 1.96a4.05 4.05 0 0 0 1.209 1.49c.53.41 1.176.725 1.94.946.765.222 1.634.333 2.608.333.127 0 .251-.001.373-.005a1.88 1.88 0 0 0-.029.08c-.197.58-.098 1.181.278 1.691.064.087.154.195.264.32zm4.914-2.233h-.869c.192.18.378.366.555.55l.314-.55zM26.052 8.657c.411.352.921.528 1.527.528.606 0 1.115-.176 1.527-.528.41-.352.617-.839.617-1.458 0-.631-.206-1.125-.617-1.476-.412-.353-.921-.53-1.527-.53-.606 0-1.116.177-1.527.53-.413.351-.617.845-.617 1.476 0 .62.204 1.106.617 1.458zm-12.86 2.202c-.878-.52-2.09-.78-3.633-.78H5.433v9.191h3.523v-2.757h.55c.75 0 1.432-.068 2.047-.206.617-.138 1.142-.344 1.58-.62a2.97 2.97 0 0 0 1.016-1.032c.245-.414.364-.89.364-1.432 0-1.056-.44-1.845-1.32-2.364h-.001zm27.9-2.255v3.664h.51c.433 0 .743-.048.927-.144.184-.096.328-.264.43-.503.106-.24.158-.627.158-1.164 0-.71-.118-1.197-.35-1.46-.231-.261-.618-.393-1.156-.393h-.519zm-2.08-1.518h3.09c.609 0 1.1.082 1.477.247.374.164.684.4.93.709.244.308.421.666.53 1.075.112.408.167.841.167 1.299 0 .716-.083 1.272-.245 1.667a2.763 2.763 0 0 1-.682.992 2.221 2.221 0 0 1-.939.533 4.826 4.826 0 0 1-1.237.183h-3.09V7.086h-.001zm6.924 4.487l1.98-.124c.041.32.129.564.26.732.214.272.52.407.919.407.297 0 .527-.07.686-.208.162-.139.24-.3.24-.482 0-.174-.076-.33-.229-.467-.153-.137-.507-.267-1.065-.389-.912-.204-1.561-.475-1.95-.814a1.636 1.636 0 0 1-.589-1.294c0-.345.1-.67.302-.977.199-.306.5-.547.903-.723.402-.175.956-.263 1.656-.263.861 0 1.517.16 1.968.478.45.319.72.826.807 1.521l-1.962.115c-.052-.302-.162-.522-.328-.659-.168-.137-.398-.206-.691-.206-.243 0-.424.051-.547.153a.47.47 0 0 0-.183.373c0 .107.05.203.15.288.099.089.33.171.698.247.91.195 1.562.393 1.955.593.394.2.68.447.858.743.179.296.269.626.269.992 0 .43-.118.827-.359 1.19a2.22 2.22 0 0 1-1 .825c-.428.188-.968.281-1.62.281-1.146 0-1.938-.22-2.38-.658-.441-.44-.69-.997-.748-1.674zm6.791 0l1.98-.124c.043.32.129.564.262.732.214.272.52.407.918.407.296 0 .525-.07.685-.208.162-.139.243-.3.243-.482 0-.174-.077-.33-.23-.467-.153-.137-.51-.267-1.065-.389-.914-.204-1.564-.475-1.953-.814a1.634 1.634 0 0 1-.586-1.294c0-.345.098-.67.3-.977.2-.306.503-.547.905-.723.402-.175.954-.263 1.656-.263.86 0 1.515.16 1.966.478.452.319.721.826.807 1.521l-1.962.115c-.053-.302-.162-.522-.328-.659s-.398-.206-.691-.206c-.24 0-.425.051-.547.153a.47.47 0 0 0-.184.373c0 .107.05.203.153.288.097.089.33.171.698.247.908.195 1.56.393 1.953.593.394.2.68.447.86.743.179.296.269.626.269.992 0 .43-.12.827-.36 1.19a2.238 2.238 0 0 1-1 .825c-.43.188-.97.281-1.621.281-1.146 0-1.938-.22-2.38-.658-.44-.44-.689-.997-.748-1.674zM40.18 16.425l.508.153a.931.931 0 0 1-.16.356.711.711 0 0 1-.276.216 1.018 1.018 0 0 1-.415.072c-.204 0-.37-.03-.499-.088a.785.785 0 0 1-.337-.312c-.094-.149-.14-.34-.14-.572 0-.31.084-.547.248-.713.166-.166.4-.25.702-.25.236 0 .422.048.557.143.146.11.252.264.302.44l-.512.113a.341.341 0 0 0-.175-.227.35.35 0 0 0-.16-.036.34.34 0 0 0-.301.158c-.053.079-.079.201-.079.369 0 .207.03.35.094.426.066.078.165.12.267.115.112 0 .195-.03.252-.093a.58.58 0 0 0 .124-.27zm1.533-.166c0 .189.035.324.107.407a.36.36 0 0 0 .287.124c.125 0 .22-.04.29-.122.069-.08.104-.225.104-.435 0-.176-.038-.305-.108-.386a.369.369 0 0 0-.29-.122.35.35 0 0 0-.283.124c-.07.082-.107.22-.107.41zm-.58-.003c0-.305.086-.543.257-.713.17-.17.409-.256.713-.256.312 0 .555.084.724.251.168.167.253.402.253.703 0 .219-.037.398-.111.538a.786.786 0 0 1-.32.327c-.14.077-.315.116-.522.116-.212 0-.387-.033-.527-.1a.8.8 0 0 1-.337-.32 1.066 1.066 0 0 1-.13-.546zm2.49-.937h.763l.295 1.139.291-1.139h.763v1.872h-.474v-1.427l-.368 1.427h-.428l-.368-1.427v1.427h-.474v-1.872zm3.3.798h.142c.112 0 .19-.02.236-.058a.184.184 0 0 0 .068-.149.207.207 0 0 0-.06-.15c-.038-.04-.113-.06-.22-.06h-.166v.417zm-.584-.798h.967c.21 0 .367.05.472.15.103.1.155.24.155.425a.58.58 0 0 1-.17.443c-.114.106-.289.16-.523.16h-.317v.694h-.584v-1.872zm2.134 0h.582v1.41h.906v.462h-1.488v-1.872zm2.01 0h.582v1.872h-.582v-1.872zm2.27 1.158l-.207-.673-.206.673h.413zm.12.405h-.66l-.092.309h-.592l.706-1.872h.634l.707 1.872h-.608l-.094-.31-.001.001zM54 15.319h.54l.709 1.036v-1.036h.547v1.872h-.547l-.704-1.028v1.028H54v-1.872zm2.286 0h1.764v.462h-.592v1.41h-.58v-1.41h-.592v-.462zM27.04 21.32s-2.405-2.832-3.28-2.577c-.875.254-1.646 1.126-1.057 1.924.398.54 2.157 2.271 3.337 3.251.426.354 1.082.398 1.502.18.307-.16.752-.826 1.161-1.552.243-.43 4.462-8.74 8.98-11.936 0 0-2.086-1.486-5.248 2.46-3.208 4.002-5.395 8.25-5.395 8.25zm-16.376-7.098c-.312.204-.761.306-1.347.306H8.92v-2.463h.432c1.185 0 1.779.4 1.779 1.197 0 .436-.155.754-.466.96h-.001z" fill="#000" fill-rule="evenodd" fill-opacity=".3"/></svg>